<svg width="500" height="500" viewBox="0 0 500 500" fill="none" xmlns="http://www.w3.org/2000/svg">
<g clip-path="url(#clip0_45_55)">
<path d="M28.2843 278.284C14.9509 264.951 8.28427 258.284 8.28427 250C8.28427 241.716 14.9509 235.049 28.2843 221.716L109.602 140.398L219.203 250L109.602 359.602L28.2843 278.284Z" fill="#BAFF00"/>
<path d="M140 390L249.602 280.398L359.203 390L277.886 471.317C264.552 484.651 257.886 491.317 249.602 491.317C241.317 491.317 234.651 484.651 221.317 471.317L140 390Z" fill="#BAFF00"/>
<path d="M281 250L390.602 140.398L471.919 221.716C485.252 235.049 491.919 241.716 491.919 250C491.919 258.284 485.252 264.951 471.919 278.284L390.602 359.602L281 250Z" fill="#BAFF00"/>
<path d="M140 110L221.317 28.6827C234.651 15.3494 241.317 8.68272 249.602 8.68272C257.886 8.68272 264.552 15.3494 277.886 28.6827L359.203 110L249.602 219.602L140 110Z" fill="#BAFF00"/>
</g>
<defs>
<clipPath id="clip0_45_55">
<rect width="500" height="500" fill="white"/>
</clipPath>
</defs>
</svg>
